<svg xmlns="http://www.w3.org/2000/svg" xmlns:xlink="http://www.w3.org/1999/xlink" width="500" zoomAndPan="magnify" viewBox="0 0 375 374.999991" height="500" preserveAspectRatio="xMidYMid meet" version="1.0"><path fill="#0e6a74" d="M 177.566406 0.96875 C 143.710938 2.902344 111.984375 13.5 83.722656 32.292969 C 50.066406 54.6875 25.539062 86.28125 11.808594 124.9375 C 3.808594 147.398438 -0.253906 177.726562 1.542969 200.785156 C 3.742188 227.914062 9.207031 248.109375 20.605469 270.902344 C 31.335938 292.496094 42.132812 307.425781 58.328125 323.222656 C 86.988281 351.148438 121.046875 367.878906 161.238281 373.675781 C 169.4375 374.875 204.359375 374.808594 212.890625 373.675781 C 239.617188 369.945312 265.878906 360.082031 288.140625 345.550781 C 297.472656 339.417969 299.671875 337.753906 309.535156 329.15625 C 320.734375 319.355469 328.128906 311.160156 336.730469 299.160156 C 355.324219 273.101562 367.1875 243.707031 371.253906 213.582031 C 372.988281 201.253906 372.988281 174.257812 371.320312 162.261719 C 367.65625 136.136719 358.324219 110.273438 344.59375 88.011719 C 328.464844 61.886719 307.003906 41.292969 278.808594 24.761719 C 257.679688 12.363281 226.15625 2.835938 201.5625 1.300781 C 188.363281 0.5 186.296875 0.5 177.566406 0.96875 Z M 219.222656 26.628906 C 249.683594 32.695312 276.875 47.023438 299.804688 68.953125 C 322.132812 90.347656 338.328125 119.003906 345.460938 149.597656 C 346.992188 156.328125 348.726562 168.726562 348.992188 175.257812 L 349.191406 179.925781 L 305.871094 180.257812 C 266.613281 180.589844 262.347656 180.722656 260.480469 181.722656 C 256.015625 184.125 253.015625 189.921875 253.949219 194.054688 C 254.882812 198.253906 257.546875 201.652344 261.082031 203.320312 L 264.546875 204.917969 L 349.058594 204.917969 L 348.59375 209.050781 C 348.058594 213.78125 346.328125 224.113281 345.859375 225.378906 C 345.660156 226.046875 337.0625 226.246094 306.003906 226.246094 L 266.414062 226.246094 L 262.878906 232.378906 C 257.949219 241.109375 253.816406 246.441406 246.949219 253.105469 L 240.953125 258.90625 L 193.5625 258.90625 L 193.5625 183.523438 L 197.496094 185.589844 C 203.09375 188.589844 210.226562 194.519531 214.824219 199.984375 C 219.558594 205.652344 220.757812 206.25 222.488281 204.117188 C 223.488281 202.851562 223.621094 201.785156 223.421875 198.121094 C 222.691406 188.722656 216.226562 179.789062 206.761719 175.257812 C 204.09375 173.992188 201.429688 172.925781 200.761719 172.925781 C 198.761719 172.925781 199.429688 171.859375 202.09375 170.925781 C 203.695312 170.394531 209.292969 169.925781 217.757812 169.792969 C 225.6875 169.59375 230.886719 169.195312 230.886719 168.792969 C 230.886719 167.660156 227.023438 162.527344 224.488281 160.328125 C 220.355469 156.664062 216.691406 155.398438 210.226562 155.398438 C 203.160156 155.398438 197.695312 157.394531 191.628906 162.328125 L 187.5 165.660156 L 183.367188 162.527344 C 178.234375 158.664062 173.636719 156.464844 168.503906 155.53125 C 158.371094 153.664062 148.574219 158.394531 144.042969 167.328125 L 142.976562 169.460938 L 156.773438 169.726562 C 167.035156 169.925781 171.167969 170.261719 172.835938 170.992188 L 175.167969 171.992188 L 171.167969 173.527344 C 159.570312 177.925781 151.773438 187.253906 151.039062 197.652344 C 150.441406 206.519531 153.375 207.316406 159.570312 200.050781 C 161.90625 197.453125 165.570312 193.722656 167.835938 191.789062 C 171.503906 188.65625 179.632812 183.589844 180.964844 183.589844 C 181.300781 183.589844 181.566406 200.386719 181.566406 221.246094 L 181.566406 258.90625 L 132.113281 258.90625 L 126.113281 252.773438 C 120.046875 246.574219 112.582031 236.042969 109.652344 229.710938 L 108.050781 226.246094 L 28.402344 226.246094 L 27.269531 220.179688 C 26.671875 216.847656 26.003906 212.050781 25.804688 209.515625 L 25.40625 204.917969 L 67.996094 204.917969 C 108.117188 204.917969 110.71875 204.785156 113.316406 203.652344 C 122.714844 199.386719 122.582031 185.191406 113.117188 181.191406 C 111.382812 180.457031 102.984375 180.257812 67.859375 180.257812 L 24.738281 180.257812 L 25.136719 173.726562 C 26.003906 160.195312 29.738281 143.601562 35.269531 128.46875 C 42.199219 109.808594 54.996094 89.347656 68.925781 74.683594 C 89.855469 52.6875 118.515625 35.492188 145.84375 28.628906 C 155.171875 26.296875 167.101562 24.296875 171.902344 24.296875 L 174.902344 24.296875 L 175.035156 69.085938 C 175.234375 111.539062 175.300781 114.074219 176.5 116.472656 C 177.167969 117.871094 178.832031 119.804688 180.101562 120.804688 C 182.167969 122.40625 183.097656 122.605469 187.230469 122.605469 C 191.363281 122.605469 192.296875 122.40625 194.363281 120.804688 C 195.695312 119.804688 197.363281 117.671875 198.164062 116.074219 C 199.5625 113.207031 199.5625 112.539062 199.5625 68.550781 L 199.5625 23.894531 L 205.425781 24.496094 C 208.625 24.761719 214.824219 25.761719 219.222656 26.628906 Z M 95.585938 248.90625 C 97.652344 250.039062 98.386719 251.90625 97.453125 253.90625 C 96.921875 255.171875 95.789062 255.839844 93.253906 256.570312 C 88.257812 258.039062 85.589844 261.304688 85.589844 266.035156 C 85.589844 269.367188 86.789062 271.035156 91.789062 274.234375 L 95.855469 276.902344 L 115.183594 276.902344 L 118.78125 279.035156 C 121.113281 280.433594 122.847656 282.097656 123.648438 283.699219 C 125.179688 286.632812 125.179688 286.964844 124.046875 289.765625 C 123.515625 290.964844 123.046875 292.164062 123.046875 292.5625 C 122.980469 293.03125 131.179688 293.230469 146.507812 293.230469 L 170.101562 293.230469 L 171.835938 294.828125 C 172.769531 295.761719 173.570312 296.960938 173.570312 297.628906 C 173.570312 298.296875 174.300781 299.628906 175.234375 300.628906 C 177.699219 303.292969 177.566406 306.894531 174.835938 309.160156 C 172.835938 310.890625 172.703125 310.890625 161.371094 310.890625 C 145.375 310.957031 142.710938 311.757812 139.710938 317.625 C 137.976562 320.957031 138.175781 323.957031 140.308594 326.953125 C 142.84375 330.488281 144.777344 330.886719 160.4375 330.886719 C 172.902344 330.886719 174.835938 331.019531 175.167969 331.953125 C 175.367188 332.554688 175.566406 337.019531 175.566406 341.953125 L 175.566406 350.882812 L 172.636719 350.882812 C 168.035156 350.882812 154.507812 348.949219 148.574219 347.484375 C 126.511719 341.953125 103.386719 330.152344 85.589844 315.292969 C 65.929688 298.960938 47.800781 275.167969 38.667969 253.707031 L 36.335938 248.242188 L 65.328125 248.242188 C 83.855469 248.242188 94.789062 248.507812 95.585938 248.90625 Z M 337.527344 248.839844 C 337.527344 251.238281 328.929688 267.902344 323.199219 276.566406 C 303.269531 306.691406 278.410156 327.6875 247.21875 340.550781 C 234.886719 345.683594 217.824219 349.816406 205.761719 350.683594 L 199.5625 351.082031 L 199.5625 342.019531 C 199.5625 337.085938 199.761719 332.554688 199.960938 331.953125 C 200.296875 331.019531 202.226562 330.886719 214.292969 330.886719 C 229.953125 330.886719 231.953125 330.488281 234.21875 326.753906 C 237.085938 321.957031 235.351562 315.625 230.222656 312.625 C 228.089844 311.359375 226.554688 311.226562 214.425781 310.957031 L 200.894531 310.757812 L 199.230469 308.757812 C 196.894531 305.960938 196.761719 302.894531 198.960938 300.496094 C 199.628906 299.761719 200.230469 298.828125 200.230469 298.429688 C 200.230469 298.027344 201.027344 296.761719 201.960938 295.628906 L 203.695312 293.5625 L 228.023438 293.5625 C 250.949219 293.5625 252.347656 293.496094 251.882812 292.363281 C 249.484375 286.898438 249.351562 285.898438 250.28125 283.898438 C 250.816406 282.832031 252.816406 280.832031 254.816406 279.433594 L 258.414062 276.902344 L 278.210938 276.902344 L 281.808594 274.566406 C 286.207031 271.769531 288.207031 269.367188 288.207031 266.769531 C 288.207031 262.4375 284.542969 257.570312 280.542969 256.640625 C 276.34375 255.640625 274.878906 252.238281 277.542969 249.574219 C 278.808594 248.308594 279.742188 248.242188 308.203125 248.242188 C 324.597656 248.242188 337.527344 248.507812 337.527344 248.839844 Z M 337.527344 248.839844 " fill-opacity="1" fill-rule="nonzero"/><path fill="#0e6a74" d="M 139.578125 89.679688 C 134.179688 91.347656 121.515625 100.742188 111.71875 110.472656 C 101.386719 120.605469 89.390625 137.46875 87.523438 144.464844 C 85.65625 151.53125 91.054688 159.597656 97.71875 159.597656 C 103.253906 159.597656 106.117188 157.195312 110.117188 149.265625 C 116.78125 136.269531 129.246094 122.9375 145.109375 112.007812 C 151.972656 107.207031 153.375 105.476562 153.972656 100.742188 C 154.972656 93.34375 147.242188 87.414062 139.578125 89.679688 Z M 139.578125 89.679688 " fill-opacity="1" fill-rule="nonzero"/><path fill="#0e6a74" d="M 227.222656 90.144531 C 221.890625 92.679688 219.289062 97.8125 220.957031 102.808594 C 222.222656 106.742188 223.289062 107.941406 228.753906 111.675781 C 236.152344 116.738281 243.085938 122.605469 249.214844 129.003906 C 255.683594 135.800781 259.546875 141.132812 264.347656 149.929688 C 268.613281 157.730469 270.746094 159.597656 275.476562 159.597656 C 279.675781 159.597656 283.339844 157.394531 285.339844 153.664062 C 288.140625 148.265625 287.140625 144.265625 280.140625 133.070312 C 272.078125 120.070312 260.015625 107.074219 247.285156 97.542969 C 236.953125 89.746094 232.019531 87.945312 227.222656 90.144531 Z M 227.222656 90.144531 " fill-opacity="1" fill-rule="nonzero"/></svg>